<svg width="32" height="32" viewBox="0 0 32 32" fill="none" xmlns="http://www.w3.org/2000/svg">
<rect x="10" y="5" width="12" height="12" fill="white"/>
<path d="M16.001 0.5C22.0765 0.500104 27.002 5.42548 27.002 11.501C27.0019 13.5052 26.4628 15.3827 25.5264 17.001H25.5273L17.7334 30.502C16.9636 31.8353 15.0384 31.8353 14.2686 30.502L6.47363 17.001H6.47559C5.53907 15.3826 5.00003 13.5053 5 11.501C5 5.42541 9.92541 0.5 16.001 0.5ZM16.001 6C12.9632 6 10.501 8.46319 10.501 11.501C10.5011 14.5387 12.9633 17.001 16.001 17.001C19.0387 17.001 21.5009 14.5387 21.501 11.501C21.501 8.4632 19.0387 6.00001 16.001 6Z" fill="#F87171"/>
</svg>
